<svg id="Capa_1" enable-background="new 0 0 512 512" height="512" viewBox="0 0 512 512" width="512" xmlns="http://www.w3.org/2000/svg"><g><path d="m204.869 379.739h102.261v132.261h-102.261z"/><path d="m165.24 96.309h43.508v43.508h-43.508z"/><path d="m303.252 96.309h43.508v43.508h-43.508z"/><path d="m165.24 235.954h43.508v43.508h-43.508z"/><path d="m303.252 235.954h43.508v43.508h-43.508z"/><path d="m482.284 482h-39.573v-467c0-8.284-6.716-15-15-15h-343.423c-8.284 0-15 6.716-15 15v467h-39.572c-8.284 0-15 6.716-15 15s6.716 15 15 15h145.154v-147.261c0-8.284 6.716-15 15-15h132.26c8.284 0 15 6.716 15 15v147.261h145.154c8.284 0 15-6.716 15-15s-6.715-15-15-15zm-105.524-400.691v73.508c0 8.284-6.716 15-15 15h-73.508c-8.284 0-15-6.716-15-15v-73.508c0-8.284 6.716-15 15-15h73.508c8.284 0 15 6.716 15 15zm-138.012 213.153c0 8.284-6.716 15-15 15h-73.508c-8.284 0-15-6.716-15-15v-73.508c0-8.284 6.716-15 15-15h73.508c8.284 0 15 6.716 15 15zm0-139.645c0 8.284-6.716 15-15 15h-73.508c-8.284 0-15-6.716-15-15v-73.508c0-8.284 6.716-15 15-15h73.508c8.284 0 15 6.716 15 15zm49.504 154.645c-8.284 0-15-6.716-15-15v-73.508c0-8.284 6.716-15 15-15h73.508c8.284 0 15 6.716 15 15v73.508c0 8.284-6.716 15-15 15z"/></g></svg>